# Blender 4.0.2
# www.blender.org
mtllib rose.mtl
o Rose
v 1.000000 1.000000 -1.000000
v 0.475814 -0.125669 -0.475814
v 1.000000 1.000000 1.000000
v 0.475814 -0.125669 0.475814
v -1.000000 1.000000 -1.000000
v -0.475814 -0.125669 -0.475814
v -1.000000 1.000000 1.000000
v -0.475814 -0.125669 0.475814
v -0.475814 -0.263914 0.000000
v 0.000000 -0.263914 -0.475814
v 1.000000 0.390877 -1.000000
v -1.000000 0.390877 1.000000
v 1.000000 0.390877 1.000000
v -1.000000 0.390877 -1.000000
v 0.000000 0.357240 1.000000
v 1.000000 0.357240 0.000000
v 0.000000 -0.263914 0.475814
v -1.000000 0.357240 0.000000
v 0.000000 0.357240 -1.000000
v 0.475814 -0.263914 0.000000
v 0.000000 0.000000 -1.000000
v 1.000000 0.000000 0.000000
v 0.000000 -0.416986 0.000000
v -1.000000 0.000000 0.000000
v 0.000000 0.000000 1.000000
v 0.000000 0.357240 0.000000
v -0.156882 -1.198293 0.156882
v -0.156882 -0.884529 0.156882
v -0.156882 -1.198293 -0.156882
v -0.156882 -0.884529 -0.156882
v 0.156882 -1.198293 0.156882
v 0.156882 -0.884529 0.156882
v 0.156882 -1.198293 -0.156882
v 0.156882 -0.884529 -0.156882
vn -0.0000 1.0000 -0.0000
vn -0.0000 -0.0000 1.0000
vn -1.0000 -0.0000 -0.0000
vn 0.2928 -0.9102 0.2928
vn 1.0000 -0.0000 -0.0000
vn -0.0000 -0.0000 -1.0000
vn 0.2512 -0.8645 -0.4353
vn -0.2512 -0.8645 -0.4353
vn 0.4353 -0.8645 0.2512
vn 0.4353 -0.8645 -0.2512
vn -0.2687 -0.9250 0.2687
vn -0.2687 -0.9250 -0.2687
vn 0.2928 -0.9102 -0.2928
vn -0.4353 -0.8645 -0.2512
vn -0.4353 -0.8645 0.2512
vn -0.2512 -0.8645 0.4353
vn 0.2512 -0.8645 0.4353
vn -0.4756 0.7400 -0.4756
vn -0.4756 0.7400 0.4756
vn -0.0000 -1.0000 -0.0000
vn 0.4756 0.7400 -0.4756
vn 0.2687 -0.9250 0.2687
vn 0.3185 -0.8148 -0.4844
vn -0.3185 -0.8148 -0.4844
vn 0.4844 -0.8148 0.3185
vn 0.4844 -0.8148 -0.3185
vn -0.2928 -0.9102 0.2928
vn -0.2928 -0.9102 -0.2928
vn 0.2687 -0.9250 -0.2687
vn -0.4844 -0.8148 -0.3185
vn -0.4844 -0.8148 0.3185
vn -0.3185 -0.8148 0.4844
vn 0.3185 -0.8148 0.4844
vn 0.4756 0.7400 0.4756
vt 0.875000 0.625000
vt 0.750000 0.750000
vt 0.750000 0.625000
vt 0.625000 0.875000
vt 0.500000 1.000000
vt 0.500000 0.875000
vt 0.625000 0.125000
vt 0.500000 0.250000
vt 0.500000 0.125000
vt 0.375000 0.625000
vt 0.250000 0.750000
vt 0.250000 0.625000
vt 0.625000 0.625000
vt 0.500000 0.750000
vt 0.500000 0.625000
vt 0.625000 0.375000
vt 0.500000 0.500000
vt 0.500000 0.375000
vt 0.375000 0.500000
vt 0.375000 0.375000
vt 0.375000 0.250000
vt 0.375000 0.750000
vt 0.125000 0.625000
vt 0.125000 0.750000
vt 0.250000 0.500000
vt 0.125000 0.500000
vt 0.375000 0.125000
vt 0.375000 0.000000
vt 0.500000 0.000000
vt 0.375000 1.000000
vt 0.375000 0.875000
vt 0.625000 0.750000
vt 0.750000 0.500000
vt 0.625000 0.500000
vt 0.625000 0.000000
vt 0.625000 0.250000
vt 0.875000 0.500000
vt 0.875000 0.750000
vt 0.625000 1.000000
s 0
usemtl Material
f 18/1/1 15/2/1 26/3/1
f 15/4/2 12/5/2 25/6/2
f 18/7/3 14/8/3 24/9/3
f 20/10/4 17/11/4 23/12/4
f 16/13/5 13/14/5 22/15/5
f 19/16/6 11/17/6 21/18/6
f 21/18/7 2/19/7 10/20/7
f 6/21/8 21/18/8 10/20/8
f 14/8/6 19/16/6 21/18/6
f 22/15/9 4/22/9 20/10/9
f 2/19/10 22/15/10 20/10/10
f 11/17/5 16/13/5 22/15/5
f 9/23/11 17/11/11 8/24/11
f 10/25/12 9/23/12 6/26/12
f 10/25/13 20/10/13 23/12/13
f 24/9/14 6/21/14 9/27/14
f 8/28/15 24/9/15 9/27/15
f 12/29/3 18/7/3 24/9/3
f 25/6/16 8/30/16 17/31/16
f 4/22/17 25/6/17 17/31/17
f 13/14/2 15/4/2 25/6/2
f 16/13/18 15/2/18 3/32/18
f 19/33/19 16/13/19 1/34/19
f 19/33/1 18/1/1 26/3/1
f 28/35/3 29/21/3 27/28/3
f 30/36/6 33/19/6 29/21/6
f 34/34/5 31/22/5 33/19/5
f 32/32/2 27/30/2 31/22/2
f 33/19/20 27/24/20 29/26/20
f 30/37/1 32/32/1 34/34/1
f 18/1/21 7/38/21 15/2/21
f 15/4/2 7/39/2 12/5/2
f 18/7/3 5/36/3 14/8/3
f 20/10/22 4/22/22 17/11/22
f 16/13/5 3/32/5 13/14/5
f 19/16/6 1/34/6 11/17/6
f 21/18/23 11/17/23 2/19/23
f 6/21/24 14/8/24 21/18/24
f 14/8/6 5/36/6 19/16/6
f 22/15/25 13/14/25 4/22/25
f 2/19/26 11/17/26 22/15/26
f 11/17/5 1/34/5 16/13/5
f 9/23/27 23/12/27 17/11/27
f 10/25/28 23/12/28 9/23/28
f 10/25/29 2/19/29 20/10/29
f 24/9/30 14/8/30 6/21/30
f 8/28/31 12/29/31 24/9/31
f 12/29/3 7/35/3 18/7/3
f 25/6/32 12/5/32 8/30/32
f 4/22/33 13/14/33 25/6/33
f 13/14/2 3/32/2 15/4/2
f 16/13/1 26/3/1 15/2/1
f 19/33/1 26/3/1 16/13/1
f 19/33/34 5/37/34 18/1/34
f 28/35/3 30/36/3 29/21/3
f 30/36/6 34/34/6 33/19/6
f 34/34/5 32/32/5 31/22/5
f 32/32/2 28/39/2 27/30/2
f 33/19/20 31/22/20 27/24/20
f 30/37/1 28/38/1 32/32/1
o Ball
v -0.121495 1.329015 0.121495
v -0.121495 1.572004 0.121495
v -0.121495 1.329015 -0.121495
v -0.121495 1.572004 -0.121495
v 0.121495 1.329015 0.121495
v 0.121495 1.572004 0.121495
v 0.121495 1.329015 -0.121495
v 0.121495 1.572004 -0.121495
v -0.148118 1.302391 -0.000000
v -0.148118 1.450510 0.148118
v -0.148118 1.598628 0.000000
v -0.148118 1.450510 -0.148118
v 0.000000 1.302391 -0.148118
v -0.000000 1.598628 -0.148118
v 0.148118 1.450510 -0.148118
v 0.148118 1.302391 0.000000
v 0.148118 1.598628 0.000000
v 0.148118 1.450510 0.148118
v -0.000000 1.302391 0.148118
v -0.000000 1.598628 0.148118
v -0.203991 1.450510 0.000000
v 0.000000 1.450510 -0.203991
v 0.203991 1.450510 0.000000
v -0.000000 1.450510 0.203991
v 0.000000 1.246519 0.000000
v -0.000000 1.654500 0.000000
vn -0.9004 -0.3397 0.2717
vn -0.9004 0.2717 0.3397
vn -0.9004 0.2717 -0.3397
vn -0.9004 -0.3397 -0.2717
vn -0.2717 -0.3397 -0.9004
vn -0.3397 0.2717 -0.9004
vn 0.3397 0.2717 -0.9004
vn 0.2717 -0.3397 -0.9004
vn 0.9004 -0.3397 -0.2717
vn 0.9004 0.2717 -0.3397
vn 0.9004 0.2717 0.3397
vn 0.9004 -0.3397 0.2717
vn 0.2717 -0.3397 0.9004
vn 0.3397 0.2717 0.9004
vn -0.3397 0.2717 0.9004
vn -0.2717 -0.3397 0.9004
vn -0.3397 -0.9004 -0.2717
vn 0.2717 -0.9004 -0.3397
vn 0.2717 -0.9004 0.3397
vn -0.3397 -0.9004 0.2717
vn 0.3397 0.9004 -0.2717
vn -0.2717 0.9004 -0.3397
vn -0.2717 0.9004 0.3397
vn 0.3397 0.9004 0.2717
vn -0.9004 -0.2717 0.3397
vn -0.9004 0.3397 0.2717
vn -0.9004 0.3397 -0.2717
vn -0.9004 -0.2717 -0.3397
vn -0.3397 -0.2717 -0.9004
vn -0.2717 0.3397 -0.9004
vn 0.2717 0.3397 -0.9004
vn 0.3397 -0.2717 -0.9004
vn 0.9004 -0.2717 -0.3397
vn 0.9004 0.3397 -0.2717
vn 0.9004 0.3397 0.2717
vn 0.9004 -0.2717 0.3397
vn 0.3397 -0.2717 0.9004
vn 0.2717 0.3397 0.9004
vn -0.2717 0.3397 0.9004
vn -0.3397 -0.2717 0.9004
vn -0.2717 -0.9004 -0.3397
vn 0.3397 -0.9004 -0.2717
vn 0.3397 -0.9004 0.2717
vn -0.2717 -0.9004 0.3397
vn 0.2717 0.9004 -0.3397
vn -0.3397 0.9004 -0.2717
vn -0.3397 0.9004 0.2717
vn 0.2717 0.9004 0.3397
vt 0.375000 0.000000
vt 0.500000 0.125000
vt 0.375000 0.125000
vt 0.625000 0.000000
vt 0.500000 0.000000
vt 0.625000 0.250000
vt 0.500000 0.250000
vt 0.375000 0.250000
vt 0.500000 0.375000
vt 0.375000 0.375000
vt 0.625000 0.500000
vt 0.500000 0.500000
vt 0.375000 0.500000
vt 0.500000 0.625000
vt 0.375000 0.625000
vt 0.625000 0.750000
vt 0.500000 0.750000
vt 0.375000 0.750000
vt 0.500000 0.875000
vt 0.375000 0.875000
vt 0.625000 1.000000
vt 0.500000 1.000000
vt 0.375000 1.000000
vt 0.125000 0.500000
vt 0.250000 0.625000
vt 0.125000 0.625000
vt 0.250000 0.500000
vt 0.250000 0.750000
vt 0.125000 0.750000
vt 0.750000 0.625000
vt 0.625000 0.625000
vt 0.875000 0.500000
vt 0.750000 0.500000
vt 0.875000 0.750000
vt 0.750000 0.750000
vt 0.625000 0.125000
vt 0.625000 0.375000
vt 0.625000 0.875000
vt 0.875000 0.625000
s 0
f 35/40/35 55/41/35 43/42/35
f 36/43/36 55/41/36 44/44/36
f 55/41/37 38/45/37 46/46/37
f 55/41/38 37/47/38 43/42/38
f 37/47/39 56/48/39 47/49/39
f 38/45/40 56/48/40 46/46/40
f 56/48/41 42/50/41 49/51/41
f 56/48/42 41/52/42 47/49/42
f 41/52/43 57/53/43 50/54/43
f 42/50/44 57/53/44 49/51/44
f 57/53/45 40/55/45 52/56/45
f 57/53/46 39/57/46 50/54/46
f 39/57/47 58/58/47 53/59/47
f 40/55/48 58/58/48 52/56/48
f 58/58/49 36/60/49 44/61/49
f 58/58/50 35/62/50 53/59/50
f 37/63/51 59/64/51 43/65/51
f 41/52/52 59/64/52 47/66/52
f 59/64/53 39/57/53 53/67/53
f 59/64/54 35/68/54 43/65/54
f 42/50/55 60/69/55 51/70/55
f 38/71/56 60/69/56 48/72/56
f 60/69/57 36/73/57 54/74/57
f 60/69/58 40/55/58 51/70/58
f 35/40/59 44/44/59 55/41/59
f 36/43/60 45/75/60 55/41/60
f 55/41/61 45/75/61 38/45/61
f 55/41/62 46/46/62 37/47/62
f 37/47/63 46/46/63 56/48/63
f 38/45/64 48/76/64 56/48/64
f 56/48/65 48/76/65 42/50/65
f 56/48/66 49/51/66 41/52/66
f 41/52/67 49/51/67 57/53/67
f 42/50/68 51/70/68 57/53/68
f 57/53/69 51/70/69 40/55/69
f 57/53/70 52/56/70 39/57/70
f 39/57/71 52/56/71 58/58/71
f 40/55/72 54/77/72 58/58/72
f 58/58/73 54/77/73 36/60/73
f 58/58/74 44/61/74 35/62/74
f 37/63/75 47/66/75 59/64/75
f 41/52/76 50/54/76 59/64/76
f 59/64/77 50/54/77 39/57/77
f 59/64/78 53/67/78 35/68/78
f 42/50/79 48/72/79 60/69/79
f 38/71/80 45/78/80 60/69/80
f 60/69/81 45/78/81 36/73/81
f 60/69/82 54/74/82 40/55/82
